<svg xmlns="http://www.w3.org/2000/svg" xmlns:xlink="http://www.w3.org/1999/xlink" width="500" zoomAndPan="magnify" viewBox="0 0 375 374.999991" height="500" preserveAspectRatio="xMidYMid meet" version="1.0"><defs><g/><clipPath id="04976d13f6"><path d="M 182 123.289062 L 209 123.289062 L 209 149 L 182 149 Z M 182 123.289062 " clip-rule="nonzero"/></clipPath><clipPath id="bc4a8005be"><path d="M 196.230469 282.28125 L 209 282.28125 L 209 291.246094 L 196.230469 291.246094 Z M 196.230469 282.28125 " clip-rule="nonzero"/></clipPath><clipPath id="7b7b73f24e"><path d="M 247.453125 218.136719 L 260.101562 218.136719 L 260.101562 225 L 247.453125 225 Z M 247.453125 218.136719 " clip-rule="nonzero"/></clipPath><clipPath id="55eb5bc3cc"><path d="M 131.109375 217 L 144 217 L 144 225 L 131.109375 225 Z M 131.109375 217 " clip-rule="nonzero"/></clipPath></defs><rect x="-37.5" width="450" fill="#ffffff" y="-37.499999" height="449.999989" fill-opacity="1"/><rect x="-37.5" width="450" fill="#000000" y="-37.499999" height="449.999989" fill-opacity="1"/><g clip-path="url(#04976d13f6)"><path fill="#b3902f" d="M 195.605469 142.054688 L 187.542969 148.175781 L 190.859375 138.605469 L 182.558594 132.816406 L 192.671875 133.023438 L 195.605469 123.328125 L 198.535156 133.023438 L 208.652344 132.816406 L 200.347656 138.605469 L 203.667969 148.175781 L 195.605469 142.054688 " fill-opacity="1" fill-rule="nonzero"/></g><path fill="#b3902f" d="M 201.847656 269.898438 C 201.847656 269.898438 201.519531 270.0625 201.058594 270.464844 C 200.59375 270.851562 200 271.4375 199.410156 272.285156 C 198.824219 273.113281 198.238281 274.207031 197.730469 275.664062 C 197.210938 277.125 196.800781 278.949219 196.433594 281.316406 C 196.382812 281.636719 196.457031 281.972656 196.609375 282.066406 C 197.785156 282.757812 199.023438 282.242188 199.890625 281.152344 C 200.777344 280.0625 201.355469 278.410156 201.660156 276.730469 C 201.96875 275.035156 202.015625 273.335938 201.980469 272.035156 C 201.949219 270.75 201.847656 269.898438 201.847656 269.898438 " fill-opacity="1" fill-rule="nonzero"/><g clip-path="url(#bc4a8005be)"><path fill="#b3902f" d="M 208.914062 290.589844 C 208.914062 290.589844 208.28125 290.828125 207.277344 291.035156 C 206.261719 291.226562 204.839844 291.355469 203.320312 291.113281 C 201.785156 290.855469 200.15625 290.222656 198.835938 288.992188 C 197.527344 287.769531 196.5 285.949219 196.3125 283.546875 C 196.289062 283.226562 196.417969 282.902344 196.589844 282.808594 C 197.832031 282.117188 198.925781 282.273438 200.164062 282.898438 C 201.386719 283.527344 202.707031 284.613281 203.988281 285.757812 C 205.261719 286.894531 206.5 288.117188 207.40625 289.023438 C 208.320312 289.945312 208.914062 290.589844 208.914062 290.589844 " fill-opacity="1" fill-rule="nonzero"/></g><path fill="#b3902f" d="M 206.960938 266.957031 C 206.960938 266.957031 206.632812 267.210938 206.195312 267.734375 C 205.972656 268.007812 205.722656 268.324219 205.460938 268.695312 C 205.203125 269.066406 204.941406 269.535156 204.683594 270.03125 C 204.429688 270.527344 204.183594 271.109375 203.976562 271.765625 C 203.761719 272.398438 203.578125 273.117188 203.449219 273.929688 C 203.1875 275.515625 203.113281 277.484375 203.507812 279.832031 C 203.558594 280.148438 203.746094 280.429688 203.925781 280.457031 C 205.253906 280.65625 206.28125 279.832031 206.917969 278.542969 C 207.234375 277.890625 207.464844 277.128906 207.617188 276.320312 C 207.761719 275.503906 207.828125 274.621094 207.839844 273.761719 C 207.863281 272.050781 207.636719 270.316406 207.410156 269.054688 C 207.183594 267.785156 206.960938 266.957031 206.960938 266.957031 " fill-opacity="1" fill-rule="nonzero"/><path fill="#b3902f" d="M 217.367188 285.765625 C 217.367188 285.765625 216.816406 286.101562 215.914062 286.484375 C 215.464844 286.679688 214.917969 286.871094 214.292969 287.019531 C 213.667969 287.167969 213.003906 287.308594 212.273438 287.339844 C 211.542969 287.371094 210.789062 287.335938 210.03125 287.1875 C 209.261719 287.023438 208.5 286.753906 207.78125 286.347656 C 206.320312 285.503906 205.046875 284.101562 204.121094 281.941406 C 203.996094 281.652344 204.003906 281.304688 204.132812 281.160156 C 205.089844 280.046875 206.238281 279.871094 207.566406 280.160156 C 208.21875 280.289062 208.917969 280.550781 209.640625 280.886719 C 210.355469 281.214844 211.082031 281.597656 211.804688 282.019531 C 213.253906 282.878906 214.625 283.789062 215.660156 284.515625 C 216.691406 285.242188 217.367188 285.765625 217.367188 285.765625 " fill-opacity="1" fill-rule="nonzero"/><path fill="#b3902f" d="M 211.96875 262.859375 C 211.96875 262.859375 211.652344 263.175781 211.253906 263.785156 C 211.050781 264.089844 210.832031 264.472656 210.609375 264.914062 C 210.382812 265.339844 210.15625 265.839844 209.957031 266.40625 C 209.570312 267.570312 209.238281 268.882812 209.222656 270.574219 C 209.191406 272.203125 209.433594 274.144531 210.242188 276.363281 C 210.351562 276.660156 210.582031 276.890625 210.761719 276.875 C 211.429688 276.820312 211.996094 276.558594 212.4375 276.125 C 212.871094 275.675781 213.191406 275.074219 213.414062 274.382812 C 213.863281 273 213.859375 271.1875 213.667969 269.496094 C 213.242188 266.023438 211.96875 262.859375 211.96875 262.859375 " fill-opacity="1" fill-rule="nonzero"/><path fill="#b3902f" d="M 224.679688 279.785156 C 224.679688 279.785156 224.195312 280.1875 223.375 280.679688 C 222.960938 280.925781 222.46875 281.195312 221.90625 281.445312 C 221.328125 281.679688 220.683594 281.894531 220 282.050781 C 218.652344 282.378906 217.046875 282.367188 215.539062 281.851562 C 213.992188 281.296875 212.507812 280.183594 211.222656 278.289062 C 211.046875 278.035156 210.992188 277.6875 211.089844 277.515625 C 211.460938 276.863281 211.933594 276.449219 212.476562 276.195312 C 213.007812 275.921875 213.625 275.824219 214.300781 275.84375 C 215.652344 275.886719 217.199219 276.335938 218.746094 276.945312 C 221.773438 278.109375 224.679688 279.785156 224.679688 279.785156 " fill-opacity="1" fill-rule="nonzero"/><path fill="#b3902f" d="M 216.695312 257.847656 C 216.695312 257.847656 216.410156 258.226562 216.0625 258.917969 C 215.710938 259.605469 215.269531 260.539062 214.984375 261.761719 C 214.691406 262.976562 214.5 264.378906 214.671875 266.0625 C 214.832031 267.707031 215.308594 269.574219 216.40625 271.628906 C 216.554688 271.902344 216.8125 272.089844 216.992188 272.046875 C 218.332031 271.75 219.050781 270.609375 219.324219 269.167969 C 219.617188 267.746094 219.40625 265.9375 219.03125 264.265625 C 218.660156 262.59375 218.070312 260.980469 217.578125 259.792969 C 217.085938 258.609375 216.695312 257.847656 216.695312 257.847656 " fill-opacity="1" fill-rule="nonzero"/><path fill="#b3902f" d="M 231.042969 273.0625 C 231.042969 273.0625 230.621094 273.511719 229.886719 274.089844 C 229.148438 274.671875 228.03125 275.339844 226.746094 275.820312 C 225.457031 276.296875 223.910156 276.511719 222.363281 276.210938 C 220.78125 275.894531 219.164062 275.015625 217.636719 273.363281 C 217.429688 273.140625 217.328125 272.8125 217.402344 272.625 C 217.988281 271.25 219.035156 270.648438 220.375 270.484375 C 221.730469 270.339844 223.304688 270.5625 224.890625 270.964844 C 226.480469 271.363281 228.011719 271.882812 229.148438 272.304688 C 230.292969 272.730469 231.042969 273.0625 231.042969 273.0625 " fill-opacity="1" fill-rule="nonzero"/><path fill="#b3902f" d="M 221.117188 252.179688 C 221.117188 252.179688 220.851562 252.589844 220.542969 253.320312 C 220.390625 253.6875 220.226562 254.132812 220.078125 254.644531 C 219.917969 255.140625 219.773438 255.707031 219.667969 256.332031 C 219.464844 257.585938 219.417969 259.074219 219.714844 260.6875 C 220.023438 262.320312 220.703125 264.136719 222.011719 266.027344 C 222.1875 266.28125 222.464844 266.433594 222.636719 266.363281 C 223.90625 265.855469 224.542969 264.6875 224.671875 263.210938 C 224.800781 261.730469 224.472656 259.992188 223.960938 258.367188 C 222.898438 255.054688 221.117188 252.179688 221.117188 252.179688 " fill-opacity="1" fill-rule="nonzero"/><path fill="#b3902f" d="M 236.65625 265.867188 C 236.65625 265.867188 236.277344 266.34375 235.59375 266.976562 C 235.253906 267.292969 234.835938 267.644531 234.351562 267.996094 C 233.851562 268.339844 233.285156 268.675781 232.667969 268.96875 C 231.433594 269.558594 229.980469 269.957031 228.378906 269.8125 C 226.789062 269.675781 225.113281 269.023438 223.417969 267.585938 C 223.1875 267.394531 223.050781 267.078125 223.105469 266.882812 C 223.507812 265.410156 224.539062 264.722656 225.847656 264.390625 C 227.148438 264.0625 228.773438 264.148438 230.386719 264.386719 C 233.550781 264.820312 236.65625 265.867188 236.65625 265.867188 " fill-opacity="1" fill-rule="nonzero"/><path fill="#b3902f" d="M 225.210938 245.984375 C 225.210938 245.984375 224.96875 246.425781 224.703125 247.191406 C 224.570312 247.578125 224.429688 248.042969 224.3125 248.574219 C 224.1875 249.097656 224.074219 249.675781 224.007812 250.316406 C 223.78125 252.890625 224.152344 256.273438 227.066406 259.773438 C 227.261719 260.007812 227.550781 260.128906 227.71875 260.042969 C 230.246094 258.808594 229.707031 255.082031 228.453125 251.9375 C 227.167969 248.722656 225.210938 245.984375 225.210938 245.984375 " fill-opacity="1" fill-rule="nonzero"/><path fill="#b3902f" d="M 241.632812 258.34375 C 241.632812 258.34375 241.292969 258.839844 240.664062 259.515625 C 240.347656 259.851562 239.960938 260.230469 239.507812 260.613281 C 239.042969 260.992188 238.503906 261.367188 237.914062 261.707031 C 235.570312 263.085938 232.214844 263.699219 228.597656 261.175781 C 228.355469 261.007812 228.191406 260.710938 228.230469 260.507812 C 228.835938 257.570312 232.039062 257.183594 235.292969 257.367188 C 238.476562 257.535156 241.632812 258.34375 241.632812 258.34375 " fill-opacity="1" fill-rule="nonzero"/><path fill="#b3902f" d="M 228.996094 239.386719 C 228.996094 239.386719 228.144531 241.269531 228.015625 243.851562 C 227.933594 246.472656 228.496094 249.824219 231.65625 253.066406 C 231.867188 253.28125 232.164062 253.375 232.328125 253.277344 C 233.515625 252.546875 233.980469 251.292969 233.898438 249.808594 C 233.824219 248.324219 233.269531 246.660156 232.550781 245.117188 C 231.84375 243.582031 230.941406 242.136719 230.234375 241.089844 C 229.523438 240.042969 228.996094 239.386719 228.996094 239.386719 " fill-opacity="1" fill-rule="nonzero"/><path fill="#b3902f" d="M 246.085938 250.589844 C 246.085938 250.589844 244.878906 252.65625 242.59375 254.152344 C 240.367188 255.679688 237.058594 256.527344 233.28125 254.328125 C 233.027344 254.183594 232.84375 253.902344 232.871094 253.699219 C 233.054688 252.183594 233.988281 251.320312 235.226562 250.769531 C 236.46875 250.226562 238.085938 250.046875 239.703125 250.03125 C 241.328125 250.019531 242.90625 250.152344 244.101562 250.296875 C 245.292969 250.4375 246.085938 250.589844 246.085938 250.589844 " fill-opacity="1" fill-rule="nonzero"/><path fill="#b3902f" d="M 232.507812 232.492188 C 232.507812 232.492188 231.6875 234.402344 231.714844 237.042969 C 231.722656 239.660156 232.492188 243.019531 235.835938 246.019531 C 236.0625 246.21875 236.363281 246.292969 236.519531 246.183594 C 238.824219 244.546875 237.933594 241.015625 236.304688 238 C 234.710938 234.984375 232.507812 232.492188 232.507812 232.492188 " fill-opacity="1" fill-rule="nonzero"/><path fill="#b3902f" d="M 250.117188 242.675781 C 250.117188 242.675781 248.960938 244.761719 246.816406 246.390625 C 244.640625 248.015625 241.4375 249.082031 237.535156 247.164062 C 237.273438 247.035156 237.070312 246.769531 237.085938 246.5625 C 237.277344 243.535156 240.511719 242.726562 243.695312 242.464844 C 246.898438 242.238281 250.117188 242.675781 250.117188 242.675781 " fill-opacity="1" fill-rule="nonzero"/><path fill="#b3902f" d="M 235.726562 225.324219 C 235.726562 225.324219 235.546875 225.824219 235.382812 226.65625 C 235.234375 227.496094 235.066406 228.636719 235.117188 229.953125 C 235.167969 231.269531 235.4375 232.761719 236.128906 234.277344 C 236.804688 235.78125 237.890625 237.308594 239.628906 238.695312 C 239.863281 238.882812 240.171875 238.9375 240.324219 238.820312 C 241.464844 237.960938 241.75 236.636719 241.53125 235.175781 C 241.320312 233.714844 240.621094 232.125 239.769531 230.667969 C 238.050781 227.734375 235.726562 225.324219 235.726562 225.324219 " fill-opacity="1" fill-rule="nonzero"/><path fill="#b3902f" d="M 253.734375 234.625 C 253.734375 234.625 253.480469 235.152344 252.96875 235.902344 C 252.46875 236.65625 251.667969 237.613281 250.617188 238.46875 C 249.566406 239.320312 248.269531 240.070312 246.734375 240.386719 C 245.183594 240.699219 243.386719 240.574219 241.378906 239.738281 C 241.113281 239.625 240.902344 239.371094 240.90625 239.167969 C 240.964844 237.664062 241.757812 236.65625 242.949219 235.96875 C 244.140625 235.285156 245.738281 234.925781 247.347656 234.734375 C 250.535156 234.34375 253.734375 234.625 253.734375 234.625 " fill-opacity="1" fill-rule="nonzero"/><path fill="#b3902f" d="M 238.722656 217.976562 C 238.722656 217.976562 238.046875 220 238.277344 222.660156 C 238.464844 225.28125 239.523438 228.582031 243.117188 231.183594 C 243.359375 231.355469 243.667969 231.394531 243.8125 231.269531 C 245.964844 229.390625 244.796875 225.992188 242.9375 223.136719 C 241.109375 220.277344 238.722656 217.976562 238.722656 217.976562 " fill-opacity="1" fill-rule="nonzero"/><path fill="#b3902f" d="M 257.054688 226.484375 C 257.054688 226.484375 256.085938 228.636719 254.09375 230.4375 C 252.050781 232.226562 248.984375 233.601562 244.914062 232.132812 C 244.640625 232.035156 244.417969 231.789062 244.410156 231.585938 C 244.332031 228.554688 247.511719 227.414062 250.660156 226.855469 C 253.824219 226.328125 257.054688 226.484375 257.054688 226.484375 " fill-opacity="1" fill-rule="nonzero"/><path fill="#b3902f" d="M 241.511719 210.472656 C 241.511719 210.472656 240.875 212.523438 241.171875 215.171875 C 241.496094 217.835938 242.613281 221.058594 246.300781 223.5 C 246.550781 223.664062 246.863281 223.6875 247.003906 223.558594 C 248.050781 222.582031 248.28125 221.261719 247.957031 219.820312 C 247.636719 218.382812 246.816406 216.855469 245.863281 215.464844 C 243.957031 212.683594 241.511719 210.472656 241.511719 210.472656 " fill-opacity="1" fill-rule="nonzero"/><g clip-path="url(#7b7b73f24e)"><path fill="#b3902f" d="M 260.101562 218.273438 C 260.101562 218.273438 259.191406 220.441406 257.246094 222.304688 C 255.324219 224.175781 252.25 225.65625 248.132812 224.367188 C 247.855469 224.28125 247.625 224.050781 247.613281 223.847656 C 247.480469 220.84375 250.542969 219.535156 253.703125 218.875 C 256.863281 218.230469 260.101562 218.273438 260.101562 218.273438 " fill-opacity="1" fill-rule="nonzero"/></g><path fill="#b3902f" d="M 254.097656 206.59375 C 254.097656 206.59375 254.945312 208.789062 254.835938 211.480469 C 254.75 214.164062 253.566406 217.367188 249.707031 219.300781 C 249.445312 219.429688 249.117188 219.425781 248.972656 219.285156 C 246.796875 217.214844 248.09375 214.144531 249.910156 211.472656 C 251.738281 208.8125 254.097656 206.59375 254.097656 206.59375 " fill-opacity="1" fill-rule="nonzero"/><path fill="#b3902f" d="M 189.363281 269.53125 C 189.363281 269.53125 189.6875 269.695312 190.152344 270.101562 C 190.617188 270.484375 191.210938 271.070312 191.800781 271.917969 C 192.386719 272.746094 192.96875 273.839844 193.480469 275.296875 C 194 276.757812 194.40625 278.582031 194.773438 280.953125 C 194.828125 281.269531 194.75 281.609375 194.597656 281.699219 C 193.421875 282.390625 192.1875 281.875 191.320312 280.785156 C 190.429688 279.699219 189.851562 278.042969 189.550781 276.363281 C 189.242188 274.667969 189.195312 272.96875 189.226562 271.671875 C 189.261719 270.382812 189.363281 269.53125 189.363281 269.53125 " fill-opacity="1" fill-rule="nonzero"/><path fill="#b3902f" d="M 182.296875 290.226562 C 182.296875 290.226562 182.925781 290.460938 183.933594 290.667969 C 184.949219 290.859375 186.371094 290.988281 187.890625 290.746094 C 189.421875 290.488281 191.050781 289.855469 192.371094 288.625 C 193.679688 287.402344 194.710938 285.585938 194.894531 283.179688 C 194.917969 282.859375 194.792969 282.535156 194.621094 282.445312 C 193.378906 281.75 192.285156 281.910156 191.042969 282.535156 C 189.820312 283.160156 188.503906 284.246094 187.21875 285.390625 C 185.949219 286.53125 184.710938 287.75 183.804688 288.660156 C 182.890625 289.578125 182.296875 290.226562 182.296875 290.226562 " fill-opacity="1" fill-rule="nonzero"/><path fill="#b3902f" d="M 184.246094 266.59375 C 184.246094 266.59375 184.574219 266.84375 185.015625 267.371094 C 185.234375 267.640625 185.484375 267.960938 185.746094 268.328125 C 186.007812 268.699219 186.269531 269.171875 186.527344 269.667969 C 186.78125 270.164062 187.023438 270.742188 187.234375 271.398438 C 187.449219 272.03125 187.628906 272.75 187.761719 273.5625 C 188.019531 275.148438 188.097656 277.121094 187.703125 279.464844 C 187.648438 279.78125 187.464844 280.0625 187.285156 280.089844 C 185.953125 280.289062 184.925781 279.464844 184.289062 278.179688 C 183.972656 277.523438 183.746094 276.761719 183.59375 275.957031 C 183.445312 275.136719 183.382812 274.253906 183.371094 273.394531 C 183.34375 271.683594 183.574219 269.949219 183.796875 268.6875 C 184.023438 267.421875 184.246094 266.59375 184.246094 266.59375 " fill-opacity="1" fill-rule="nonzero"/><path fill="#b3902f" d="M 173.84375 285.398438 C 173.84375 285.398438 174.390625 285.734375 175.296875 286.117188 C 175.742188 286.3125 176.292969 286.507812 176.917969 286.652344 C 177.539062 286.800781 178.207031 286.941406 178.9375 286.972656 C 179.667969 287.003906 180.421875 286.972656 181.175781 286.824219 C 181.945312 286.660156 182.707031 286.386719 183.425781 285.980469 C 184.890625 285.136719 186.164062 283.734375 187.089844 281.578125 C 187.214844 281.285156 187.207031 280.9375 187.078125 280.792969 C 186.121094 279.679688 184.96875 279.507812 183.644531 279.792969 C 182.988281 279.925781 182.289062 280.1875 181.570312 280.523438 C 180.851562 280.847656 180.128906 281.230469 179.40625 281.65625 C 177.957031 282.511719 176.585938 283.421875 175.550781 284.152344 C 174.515625 284.875 173.84375 285.398438 173.84375 285.398438 " fill-opacity="1" fill-rule="nonzero"/><path fill="#b3902f" d="M 179.242188 262.492188 C 179.242188 262.492188 179.554688 262.808594 179.957031 263.417969 C 180.15625 263.722656 180.378906 264.105469 180.597656 264.550781 C 180.828125 264.976562 181.050781 265.472656 181.25 266.039062 C 181.640625 267.203125 181.96875 268.519531 181.984375 270.210938 C 182.019531 271.835938 181.773438 273.78125 180.96875 275.996094 C 180.859375 276.292969 180.628906 276.523438 180.449219 276.507812 C 179.777344 276.457031 179.214844 276.191406 178.773438 275.757812 C 178.339844 275.308594 178.015625 274.707031 177.792969 274.015625 C 177.347656 272.632812 177.347656 270.820312 177.542969 269.128906 C 177.96875 265.65625 179.242188 262.492188 179.242188 262.492188 " fill-opacity="1" fill-rule="nonzero"/><path fill="#b3902f" d="M 166.527344 279.417969 C 166.527344 279.417969 167.011719 279.820312 167.835938 280.3125 C 168.25 280.558594 168.742188 280.832031 169.304688 281.078125 C 169.882812 281.3125 170.527344 281.527344 171.207031 281.683594 C 172.554688 282.011719 174.164062 282.003906 175.667969 281.488281 C 177.21875 280.929688 178.703125 279.816406 179.988281 277.921875 C 180.160156 277.667969 180.21875 277.324219 180.117188 277.148438 C 179.746094 276.496094 179.277344 276.085938 178.734375 275.828125 C 178.199219 275.554688 177.582031 275.457031 176.90625 275.480469 C 175.558594 275.519531 174.011719 275.96875 172.464844 276.582031 C 169.4375 277.746094 166.527344 279.417969 166.527344 279.417969 " fill-opacity="1" fill-rule="nonzero"/><path fill="#b3902f" d="M 174.511719 257.484375 C 174.511719 257.484375 174.800781 257.863281 175.148438 258.550781 C 175.496094 259.242188 175.941406 260.171875 176.226562 261.398438 C 176.519531 262.609375 176.707031 264.015625 176.535156 265.695312 C 176.378906 267.339844 175.898438 269.207031 174.800781 271.261719 C 174.65625 271.535156 174.394531 271.722656 174.214844 271.683594 C 172.875 271.382812 172.160156 270.242188 171.886719 268.800781 C 171.59375 267.378906 171.804688 265.570312 172.175781 263.898438 C 172.546875 262.230469 173.136719 260.617188 173.632812 259.425781 C 174.125 258.242188 174.511719 257.484375 174.511719 257.484375 " fill-opacity="1" fill-rule="nonzero"/><path fill="#b3902f" d="M 160.164062 272.695312 C 160.164062 272.695312 160.585938 273.144531 161.324219 273.726562 C 162.0625 274.304688 163.179688 274.976562 164.460938 275.457031 C 165.753906 275.929688 167.300781 276.144531 168.847656 275.84375 C 170.425781 275.527344 172.046875 274.652344 173.574219 272.996094 C 173.78125 272.773438 173.882812 272.445312 173.804688 272.257812 C 173.222656 270.882812 172.171875 270.28125 170.832031 270.117188 C 169.476562 269.976562 167.90625 270.195312 166.316406 270.597656 C 164.730469 271 163.199219 271.519531 162.0625 271.9375 C 160.917969 272.363281 160.164062 272.695312 160.164062 272.695312 " fill-opacity="1" fill-rule="nonzero"/><path fill="#b3902f" d="M 170.089844 251.8125 C 170.089844 251.8125 170.359375 252.226562 170.664062 252.953125 C 170.820312 253.320312 170.984375 253.765625 171.132812 254.28125 C 171.292969 254.777344 171.4375 255.339844 171.542969 255.964844 C 171.746094 257.21875 171.789062 258.707031 171.492188 260.324219 C 171.1875 261.953125 170.507812 263.773438 169.199219 265.660156 C 169.023438 265.914062 168.742188 266.066406 168.574219 266 C 167.304688 265.492188 166.664062 264.320312 166.539062 262.84375 C 166.410156 261.363281 166.738281 259.625 167.25 258 C 168.3125 254.6875 170.089844 251.8125 170.089844 251.8125 " fill-opacity="1" fill-rule="nonzero"/><path fill="#b3902f" d="M 154.550781 265.503906 C 154.550781 265.503906 154.933594 265.976562 155.617188 266.609375 C 155.957031 266.925781 156.375 267.28125 156.855469 267.632812 C 157.355469 267.972656 157.921875 268.3125 158.542969 268.605469 C 159.777344 269.191406 161.230469 269.59375 162.832031 269.445312 C 164.417969 269.308594 166.097656 268.65625 167.792969 267.21875 C 168.019531 267.027344 168.160156 266.710938 168.101562 266.515625 C 167.703125 265.042969 166.667969 264.355469 165.363281 264.027344 C 164.0625 263.695312 162.433594 263.785156 160.824219 264.019531 C 157.65625 264.453125 154.550781 265.503906 154.550781 265.503906 " fill-opacity="1" fill-rule="nonzero"/><path fill="#b3902f" d="M 165.996094 245.617188 C 165.996094 245.617188 166.238281 246.058594 166.507812 246.828125 C 166.640625 247.210938 166.777344 247.675781 166.894531 248.207031 C 167.023438 248.730469 167.136719 249.308594 167.199219 249.949219 C 167.429688 252.523438 167.058594 255.910156 164.144531 259.40625 C 163.945312 259.640625 163.65625 259.761719 163.488281 259.675781 C 160.960938 258.445312 161.503906 254.71875 162.753906 251.574219 C 164.042969 248.355469 165.996094 245.617188 165.996094 245.617188 " fill-opacity="1" fill-rule="nonzero"/><path fill="#b3902f" d="M 149.574219 257.980469 C 149.574219 257.980469 149.917969 258.472656 150.546875 259.148438 C 150.863281 259.484375 151.25 259.863281 151.703125 260.25 C 152.164062 260.628906 152.703125 261.003906 153.296875 261.339844 C 155.640625 262.722656 158.992188 263.332031 162.609375 260.808594 C 162.855469 260.640625 163.019531 260.34375 162.976562 260.144531 C 162.371094 257.203125 159.171875 256.816406 155.914062 257 C 152.730469 257.167969 149.574219 257.980469 149.574219 257.980469 " fill-opacity="1" fill-rule="nonzero"/><path fill="#b3902f" d="M 162.210938 239.019531 C 162.210938 239.019531 163.066406 240.902344 163.195312 243.484375 C 163.273438 246.105469 162.714844 249.457031 159.554688 252.699219 C 159.34375 252.914062 159.042969 253.011719 158.882812 252.914062 C 157.691406 252.183594 157.226562 250.929688 157.3125 249.441406 C 157.386719 247.960938 157.941406 246.292969 158.65625 244.75 C 159.363281 243.214844 160.269531 241.769531 160.976562 240.722656 C 161.6875 239.679688 162.210938 239.019531 162.210938 239.019531 " fill-opacity="1" fill-rule="nonzero"/><path fill="#b3902f" d="M 145.125 250.226562 C 145.125 250.226562 146.328125 252.292969 148.613281 253.785156 C 150.839844 255.3125 154.152344 256.160156 157.925781 253.964844 C 158.183594 253.816406 158.367188 253.535156 158.339844 253.332031 C 158.15625 251.816406 157.222656 250.953125 155.984375 250.402344 C 154.738281 249.859375 153.121094 249.683594 151.507812 249.664062 C 149.882812 249.652344 148.304688 249.785156 147.109375 249.929688 C 145.917969 250.070312 145.125 250.226562 145.125 250.226562 " fill-opacity="1" fill-rule="nonzero"/><path fill="#b3902f" d="M 158.699219 232.125 C 158.699219 232.125 159.523438 234.035156 159.492188 236.679688 C 159.484375 239.292969 158.71875 242.652344 155.371094 245.652344 C 155.148438 245.851562 154.84375 245.925781 154.691406 245.816406 C 152.382812 244.179688 153.273438 240.648438 154.902344 237.632812 C 156.496094 234.621094 158.699219 232.125 158.699219 232.125 " fill-opacity="1" fill-rule="nonzero"/><path fill="#b3902f" d="M 141.09375 242.308594 C 141.09375 242.308594 142.25 244.398438 144.394531 246.023438 C 146.570312 247.648438 149.773438 248.714844 153.675781 246.796875 C 153.9375 246.671875 154.136719 246.402344 154.125 246.199219 C 153.933594 243.167969 150.699219 242.359375 147.515625 242.097656 C 144.3125 241.871094 141.09375 242.308594 141.09375 242.308594 " fill-opacity="1" fill-rule="nonzero"/><path fill="#b3902f" d="M 155.480469 224.957031 C 155.480469 224.957031 155.664062 225.457031 155.824219 226.289062 C 155.976562 227.128906 156.144531 228.269531 156.09375 229.585938 C 156.042969 230.902344 155.769531 232.394531 155.082031 233.914062 C 154.40625 235.417969 153.320312 236.941406 151.582031 238.328125 C 151.347656 238.515625 151.039062 238.570312 150.886719 238.457031 C 149.742188 237.597656 149.460938 236.269531 149.675781 234.808594 C 149.886719 233.347656 150.589844 231.757812 151.4375 230.300781 C 153.160156 227.371094 155.480469 224.957031 155.480469 224.957031 " fill-opacity="1" fill-rule="nonzero"/><path fill="#b3902f" d="M 137.472656 234.257812 C 137.472656 234.257812 137.730469 234.789062 138.242188 235.539062 C 138.742188 236.289062 139.542969 237.25 140.59375 238.101562 C 141.644531 238.957031 142.941406 239.703125 144.476562 240.019531 C 146.027344 240.335938 147.824219 240.207031 149.828125 239.371094 C 150.097656 239.257812 150.308594 239.003906 150.300781 238.800781 C 150.242188 237.296875 149.453125 236.289062 148.261719 235.601562 C 147.066406 234.917969 145.46875 234.558594 143.863281 234.367188 C 140.675781 233.976562 137.472656 234.257812 137.472656 234.257812 " fill-opacity="1" fill-rule="nonzero"/><path fill="#b3902f" d="M 152.484375 217.609375 C 152.484375 217.609375 153.164062 219.632812 152.933594 222.292969 C 152.746094 224.917969 151.6875 228.214844 148.089844 230.816406 C 147.851562 230.992188 147.539062 231.03125 147.394531 230.90625 C 145.246094 229.027344 146.414062 225.628906 148.273438 222.769531 C 150.101562 219.914062 152.484375 217.609375 152.484375 217.609375 " fill-opacity="1" fill-rule="nonzero"/><path fill="#b3902f" d="M 134.15625 226.117188 C 134.15625 226.117188 135.121094 228.269531 137.113281 230.070312 C 139.15625 231.859375 142.226562 233.238281 146.296875 231.765625 C 146.570312 231.667969 146.792969 231.425781 146.796875 231.21875 C 146.875 228.1875 143.699219 227.046875 140.550781 226.492188 C 137.382812 225.960938 134.15625 226.117188 134.15625 226.117188 " fill-opacity="1" fill-rule="nonzero"/><path fill="#b3902f" d="M 149.699219 210.105469 C 149.699219 210.105469 150.332031 212.15625 150.035156 214.808594 C 149.714844 217.46875 148.597656 220.695312 144.90625 223.132812 C 144.660156 223.296875 144.347656 223.324219 144.207031 223.191406 C 143.15625 222.21875 142.929688 220.894531 143.253906 219.457031 C 143.574219 218.019531 144.394531 216.488281 145.347656 215.097656 C 147.253906 212.320312 149.699219 210.105469 149.699219 210.105469 " fill-opacity="1" fill-rule="nonzero"/><g clip-path="url(#55eb5bc3cc)"><path fill="#b3902f" d="M 131.109375 217.90625 C 131.109375 217.90625 132.019531 220.074219 133.964844 221.9375 C 135.886719 223.808594 138.960938 225.292969 143.078125 224.003906 C 143.355469 223.917969 143.585938 223.683594 143.597656 223.480469 C 143.726562 220.480469 140.664062 219.167969 137.507812 218.507812 C 134.347656 217.863281 131.109375 217.90625 131.109375 217.90625 " fill-opacity="1" fill-rule="nonzero"/></g><path fill="#b3902f" d="M 137.109375 206.226562 C 137.109375 206.226562 136.261719 208.421875 136.371094 211.113281 C 136.457031 213.796875 137.644531 217 141.503906 218.933594 C 141.761719 219.066406 142.089844 219.058594 142.238281 218.917969 C 144.414062 216.847656 143.117188 213.777344 141.300781 211.109375 C 139.472656 208.445312 137.109375 206.226562 137.109375 206.226562 " fill-opacity="1" fill-rule="nonzero"/><path fill="#1c263b" d="M 240.703125 183.390625 L 244.144531 168.089844 L 195.605469 149.527344 L 147.058594 167.859375 L 150.550781 183.652344 L 141.164062 169.324219 C 141.164062 169.324219 147.421875 237.835938 195.605469 272.011719 C 243.785156 237.835938 250.042969 169.324219 250.042969 169.324219 L 240.703125 183.390625 " fill-opacity="1" fill-rule="nonzero"/><path fill="#ffffff" d="M 197.273438 239.503906 C 197.433594 239.359375 197.578125 239.199219 197.753906 239.074219 L 198.261719 238.679688 L 198.800781 238.328125 C 199.167969 238.113281 199.535156 237.890625 199.925781 237.714844 C 200.304688 237.519531 200.703125 237.371094 201.101562 237.214844 C 201.503906 237.074219 201.90625 236.941406 202.320312 236.828125 C 202.726562 236.707031 203.144531 236.609375 203.5625 236.519531 C 203.980469 236.433594 204.398438 236.359375 204.824219 236.296875 C 206.515625 236.0625 208.230469 235.960938 209.945312 236.007812 C 210.804688 236.035156 211.660156 236.074219 212.515625 236.148438 C 212.941406 236.179688 213.367188 236.226562 213.792969 236.277344 C 214.210938 236.328125 214.644531 236.386719 215.042969 236.457031 L 215.871094 236.597656 L 215.886719 235.742188 C 215.925781 233.734375 215.921875 231.726562 215.933594 229.722656 L 215.945312 226.710938 L 215.929688 223.699219 C 215.925781 221.695312 215.910156 219.6875 215.875 217.679688 C 215.847656 215.675781 215.816406 213.667969 215.757812 211.660156 L 215.738281 210.9375 L 215.0625 211.074219 C 213.90625 211.308594 212.746094 211.535156 211.59375 211.78125 L 208.128906 212.519531 C 205.824219 213.027344 203.515625 213.535156 201.222656 214.105469 C 203.574219 213.859375 205.914062 213.554688 208.257812 213.246094 L 211.761719 212.761719 C 212.695312 212.632812 213.625 212.492188 214.554688 212.355469 C 214.507812 214.128906 214.476562 215.90625 214.453125 217.679688 C 214.417969 219.6875 214.402344 221.695312 214.398438 223.699219 L 214.382812 226.710938 L 214.390625 229.722656 C 214.40625 231.453125 214.40625 233.1875 214.429688 234.921875 C 214.265625 234.90625 214.105469 234.886719 213.9375 234.875 C 213.496094 234.835938 213.050781 234.800781 212.609375 234.777344 C 211.722656 234.730469 210.832031 234.710938 209.945312 234.738281 C 208.167969 234.785156 206.390625 234.945312 204.644531 235.328125 C 204.210938 235.421875 203.777344 235.527344 203.347656 235.652344 C 202.917969 235.773438 202.492188 235.90625 202.070312 236.058594 C 201.648438 236.207031 201.238281 236.390625 200.832031 236.570312 C 200.429688 236.769531 200.027344 236.964844 199.648438 237.203125 C 199.257812 237.421875 198.894531 237.683594 198.535156 237.949219 L 198.019531 238.375 L 197.539062 238.839844 C 197.371094 238.984375 197.238281 239.167969 197.089844 239.332031 C 196.941406 239.492188 196.804688 239.671875 196.683594 239.855469 C 196.414062 240.207031 196.207031 240.597656 195.992188 240.976562 C 196.257812 240.625 196.507812 240.269531 196.8125 239.960938 C 196.953125 239.796875 197.109375 239.644531 197.273438 239.503906 " fill-opacity="1" fill-rule="nonzero"/><path fill="#ffffff" d="M 219.292969 225.578125 L 216.851562 225.535156 L 216.851562 227.105469 L 218.566406 227.070312 L 218.796875 239.039062 C 217.910156 238.941406 217.035156 238.863281 216.15625 238.808594 C 215.085938 238.738281 214.015625 238.699219 212.945312 238.691406 C 210.804688 238.667969 208.660156 238.761719 206.535156 239.039062 C 206.003906 239.113281 205.472656 239.191406 204.949219 239.292969 C 204.421875 239.386719 203.898438 239.507812 203.378906 239.636719 L 202.601562 239.84375 L 201.832031 240.09375 C 201.328125 240.273438 200.824219 240.457031 200.34375 240.695312 C 200.097656 240.804688 199.855469 240.921875 199.625 241.058594 C 199.390625 241.195312 199.148438 241.3125 198.933594 241.472656 C 198.480469 241.761719 198.0625 242.101562 197.671875 242.472656 C 197.492188 242.667969 197.292969 242.851562 197.128906 243.0625 C 196.972656 243.28125 196.800781 243.488281 196.660156 243.710938 C 196.53125 243.949219 196.394531 244.175781 196.277344 244.417969 L 195.992188 245.164062 L 196.304688 244.429688 C 196.429688 244.195312 196.578125 243.972656 196.710938 243.746094 C 196.859375 243.527344 197.035156 243.328125 197.199219 243.121094 C 197.367188 242.917969 197.570312 242.746094 197.757812 242.558594 C 198.152344 242.210938 198.578125 241.894531 199.03125 241.628906 C 199.25 241.476562 199.492188 241.371094 199.722656 241.246094 C 199.953125 241.121094 200.195312 241.015625 200.441406 240.917969 C 200.921875 240.703125 201.425781 240.542969 201.925781 240.382812 L 202.6875 240.167969 L 203.460938 239.992188 C 203.976562 239.886719 204.496094 239.785156 205.019531 239.714844 C 205.539062 239.632812 206.066406 239.578125 206.589844 239.523438 C 208.695312 239.328125 210.8125 239.316406 212.925781 239.417969 C 213.980469 239.46875 215.035156 239.550781 216.085938 239.65625 C 217.132812 239.761719 218.191406 239.890625 219.21875 240.058594 L 219.765625 240.152344 L 219.777344 239.578125 L 220.027344 226.316406 L 220.042969 225.59375 L 219.292969 225.578125 " fill-opacity="1" fill-rule="nonzero"/><path fill="#ffffff" d="M 193.9375 239.503906 C 193.777344 239.359375 193.628906 239.199219 193.453125 239.074219 L 192.945312 238.679688 L 192.410156 238.328125 C 192.039062 238.113281 191.675781 237.890625 191.285156 237.714844 C 190.90625 237.519531 190.503906 237.371094 190.109375 237.214844 C 189.707031 237.074219 189.300781 236.941406 188.890625 236.828125 C 188.480469 236.707031 188.066406 236.609375 187.648438 236.519531 C 187.230469 236.433594 186.808594 236.359375 186.386719 236.296875 C 184.695312 236.0625 182.976562 235.960938 181.265625 236.007812 C 180.40625 236.035156 179.550781 236.074219 178.695312 236.148438 C 178.269531 236.179688 177.84375 236.226562 177.417969 236.277344 C 176.996094 236.328125 176.5625 236.386719 176.164062 236.457031 L 175.339844 236.597656 L 175.320312 235.742188 C 175.28125 233.734375 175.289062 231.726562 175.273438 229.722656 L 175.261719 226.710938 L 175.277344 223.699219 C 175.285156 221.695312 175.296875 219.6875 175.335938 217.679688 C 175.359375 215.675781 175.394531 213.667969 175.453125 211.660156 L 175.472656 210.9375 L 176.148438 211.074219 C 177.304688 211.308594 178.460938 211.535156 179.617188 211.78125 L 183.082031 212.519531 C 185.386719 213.027344 187.691406 213.535156 189.988281 214.105469 C 187.636719 213.859375 185.292969 213.554688 182.953125 213.246094 L 179.445312 212.761719 C 178.515625 212.632812 177.585938 212.492188 176.65625 212.355469 C 176.703125 214.128906 176.734375 215.90625 176.757812 217.679688 C 176.792969 219.6875 176.808594 221.695312 176.8125 223.699219 L 176.828125 226.710938 L 176.816406 229.722656 C 176.804688 231.453125 176.804688 233.1875 176.78125 234.921875 C 176.941406 234.90625 177.105469 234.886719 177.269531 234.875 C 177.714844 234.835938 178.15625 234.800781 178.601562 234.777344 C 179.488281 234.730469 180.375 234.710938 181.265625 234.738281 C 183.039062 234.785156 184.820312 234.945312 186.5625 235.328125 C 187 235.421875 187.433594 235.527344 187.863281 235.652344 C 188.292969 235.773438 188.71875 235.90625 189.136719 236.058594 C 189.558594 236.207031 189.96875 236.390625 190.378906 236.570312 C 190.777344 236.769531 191.179688 236.964844 191.5625 237.203125 C 191.949219 237.421875 192.316406 237.683594 192.671875 237.949219 L 193.1875 238.375 L 193.671875 238.839844 C 193.835938 238.984375 193.96875 239.167969 194.117188 239.332031 C 194.269531 239.492188 194.402344 239.671875 194.527344 239.855469 C 194.792969 240.207031 195 240.597656 195.21875 240.976562 C 194.953125 240.625 194.703125 240.269531 194.394531 239.960938 C 194.253906 239.796875 194.101562 239.644531 193.9375 239.503906 " fill-opacity="1" fill-rule="nonzero"/><path fill="#ffffff" d="M 171.917969 225.578125 L 174.359375 225.535156 L 174.359375 227.105469 L 172.640625 227.070312 L 172.414062 239.039062 C 173.296875 238.941406 174.175781 238.863281 175.054688 238.808594 C 176.125 238.738281 177.195312 238.699219 178.265625 238.691406 C 180.402344 238.667969 182.546875 238.761719 184.675781 239.039062 C 185.207031 239.113281 185.734375 239.191406 186.261719 239.292969 C 186.789062 239.386719 187.3125 239.507812 187.832031 239.636719 L 188.609375 239.84375 L 189.375 240.09375 C 189.878906 240.273438 190.382812 240.457031 190.867188 240.695312 C 191.113281 240.804688 191.355469 240.921875 191.585938 241.058594 C 191.816406 241.195312 192.058594 241.3125 192.277344 241.472656 C 192.726562 241.761719 193.148438 242.101562 193.535156 242.472656 C 193.714844 242.667969 193.914062 242.851562 194.082031 243.0625 C 194.238281 243.28125 194.410156 243.488281 194.550781 243.710938 C 194.675781 243.949219 194.8125 244.175781 194.929688 244.417969 L 195.21875 245.164062 L 194.902344 244.429688 C 194.777344 244.195312 194.632812 243.972656 194.5 243.746094 C 194.351562 243.527344 194.171875 243.328125 194.011719 243.121094 C 193.839844 242.917969 193.636719 242.746094 193.453125 242.558594 C 193.054688 242.210938 192.632812 241.894531 192.179688 241.628906 C 191.960938 241.476562 191.71875 241.371094 191.484375 241.246094 C 191.253906 241.121094 191.011719 241.015625 190.769531 240.917969 C 190.289062 240.703125 189.78125 240.542969 189.28125 240.382812 L 188.519531 240.167969 L 187.75 239.992188 C 187.230469 239.886719 186.714844 239.785156 186.191406 239.714844 C 185.667969 239.632812 185.144531 239.578125 184.621094 239.523438 C 182.515625 239.328125 180.398438 239.316406 178.285156 239.417969 C 177.230469 239.46875 176.175781 239.550781 175.125 239.65625 C 174.074219 239.761719 173.019531 239.890625 171.992188 240.058594 L 171.445312 240.152344 L 171.433594 239.578125 L 171.179688 226.316406 L 171.167969 225.59375 L 171.917969 225.578125 " fill-opacity="1" fill-rule="nonzero"/><path fill="#ffffff" d="M 205.582031 196.09375 C 196.851562 196.09375 195.605469 200.425781 195.605469 200.425781 C 195.605469 200.425781 194.359375 196.09375 185.628906 196.09375 C 185.628906 196.09375 191.238281 207.855469 190.617188 217.140625 L 200.59375 217.140625 C 199.96875 207.855469 205.582031 196.09375 205.582031 196.09375 " fill-opacity="1" fill-rule="nonzero"/><path fill="#ffffff" d="M 190.617188 190.832031 L 190.617188 194.855469 L 195.605469 197.640625 L 200.59375 194.855469 L 200.59375 190.832031 C 200.59375 190.832031 201.535156 190.175781 202.4375 189.125 C 203.488281 187.894531 204.023438 186.3125 204.023438 184.703125 L 204.023438 177.832031 L 187.1875 177.832031 L 187.1875 184.933594 C 187.1875 186.207031 187.542969 187.46875 188.289062 188.507812 C 189.296875 189.914062 190.617188 190.832031 190.617188 190.832031 " fill-opacity="1" fill-rule="nonzero"/><path fill="#ffffff" d="M 195.605469 169.410156 L 180.796875 176.3125 L 184.1875 178.621094 L 184.1875 182.953125 C 184.074219 183.148438 184 183.484375 184 183.863281 C 184 184.464844 184.1875 184.953125 184.417969 184.953125 C 184.652344 184.953125 184.839844 184.464844 184.839844 183.863281 C 184.839844 183.484375 184.765625 183.148438 184.652344 182.953125 L 184.652344 178.941406 L 185.402344 179.449219 C 187.929688 177.746094 195.597656 178.015625 195.605469 178.015625 C 195.609375 178.015625 203.28125 177.746094 205.808594 179.449219 L 210.414062 176.3125 L 195.605469 169.410156 " fill-opacity="1" fill-rule="nonzero"/><g fill="#f7b11c" fill-opacity="1"><g transform="translate(70.762869, 133.178314)"><g><path d="M 17.359375 -37.296875 L 23.4375 -18.859375 C 24.082031 -16.898438 24.234375 -14.988281 23.890625 -13.125 C 23.554688 -11.269531 22.664062 -9.59375 21.21875 -8.09375 C 19.78125 -6.59375 17.734375 -5.410156 15.078125 -4.546875 C 11.304688 -3.296875 8.117188 -3.304688 5.515625 -4.578125 C 2.921875 -5.847656 1.097656 -8.070312 0.046875 -11.25 L -6 -29.59375 L 0.015625 -31.578125 L 5.765625 -14.140625 C 6.535156 -11.796875 7.554688 -10.304688 8.828125 -9.671875 C 10.097656 -9.035156 11.679688 -9.03125 13.578125 -9.65625 C 14.890625 -10.09375 15.882812 -10.675781 16.5625 -11.40625 C 17.25 -12.132812 17.628906 -13.035156 17.703125 -14.109375 C 17.785156 -15.191406 17.582031 -16.460938 17.09375 -17.921875 L 11.359375 -35.328125 Z M 17.359375 -37.296875 "/></g></g></g><g fill="#f7b11c" fill-opacity="1"><g transform="translate(99.746878, 123.658723)"><g><path d="M 5.125 -32.078125 C 7.757812 -32.710938 10.015625 -32.921875 11.890625 -32.703125 C 13.773438 -32.484375 15.289062 -31.828125 16.4375 -30.734375 C 17.582031 -29.648438 18.390625 -28.125 18.859375 -26.15625 C 19.179688 -24.832031 19.207031 -23.609375 18.9375 -22.484375 C 18.675781 -21.367188 18.21875 -20.363281 17.5625 -19.46875 C 16.914062 -18.570312 16.164062 -17.796875 15.3125 -17.140625 L 26.953125 -6.515625 L 20.09375 -4.859375 L 10.4375 -14.34375 L 7.140625 -13.546875 L 9.84375 -2.375 L 3.671875 -0.890625 L -3.375 -30.03125 Z M 5.90625 -26.921875 L 4.03125 -26.46875 L 5.921875 -18.578125 L 7.921875 -19.0625 C 9.972656 -19.5625 11.359375 -20.253906 12.078125 -21.140625 C 12.796875 -22.035156 12.992188 -23.15625 12.671875 -24.5 C 12.335938 -25.875 11.625 -26.742188 10.53125 -27.109375 C 9.445312 -27.472656 7.90625 -27.410156 5.90625 -26.921875 Z M 5.90625 -26.921875 "/></g></g></g><g fill="#f7b11c" fill-opacity="1"><g transform="translate(125.536673, 117.356241)"><g><path d="M 21.84375 -3.515625 L 18.5625 -10.21875 L 7.78125 -8.484375 L 6.75 -1.09375 L 0 0 L 5.65625 -31.421875 L 13.34375 -32.65625 L 28.609375 -4.609375 Z M 16.21875 -15.234375 L 12.96875 -21.765625 C 12.757812 -22.210938 12.484375 -22.773438 12.140625 -23.453125 C 11.796875 -24.140625 11.453125 -24.835938 11.109375 -25.546875 C 10.773438 -26.265625 10.492188 -26.890625 10.265625 -27.421875 C 10.222656 -26.847656 10.148438 -26.132812 10.046875 -25.28125 C 9.941406 -24.425781 9.835938 -23.613281 9.734375 -22.84375 C 9.640625 -22.082031 9.570312 -21.539062 9.53125 -21.21875 L 8.5 -14 Z M 16.21875 -15.234375 "/></g></g></g><g fill="#f7b11c" fill-opacity="1"><g transform="translate(152.999262, 112.935256)"><g><path d="M 14.359375 -26.40625 C 13.148438 -26.300781 12.097656 -25.972656 11.203125 -25.421875 C 10.304688 -24.878906 9.578125 -24.140625 9.015625 -23.203125 C 8.460938 -22.265625 8.070312 -21.15625 7.84375 -19.875 C 7.625 -18.59375 7.582031 -17.171875 7.71875 -15.609375 C 7.894531 -13.492188 8.304688 -11.707031 8.953125 -10.25 C 9.597656 -8.800781 10.503906 -7.734375 11.671875 -7.046875 C 12.847656 -6.359375 14.304688 -6.085938 16.046875 -6.234375 C 17.253906 -6.335938 18.457031 -6.578125 19.65625 -6.953125 C 20.851562 -7.328125 22.148438 -7.828125 23.546875 -8.453125 L 23.984375 -3.140625 C 22.703125 -2.484375 21.429688 -1.984375 20.171875 -1.640625 C 18.910156 -1.296875 17.484375 -1.054688 15.890625 -0.921875 C 12.804688 -0.660156 10.222656 -1.082031 8.140625 -2.1875 C 6.054688 -3.289062 4.4375 -4.953125 3.28125 -7.171875 C 2.132812 -9.398438 1.429688 -12.046875 1.171875 -15.109375 C 0.984375 -17.367188 1.117188 -19.460938 1.578125 -21.390625 C 2.035156 -23.328125 2.800781 -25.03125 3.875 -26.5 C 4.945312 -27.976562 6.320312 -29.160156 8 -30.046875 C 9.6875 -30.941406 11.660156 -31.484375 13.921875 -31.671875 C 15.410156 -31.796875 16.914062 -31.734375 18.4375 -31.484375 C 19.957031 -31.234375 21.421875 -30.84375 22.828125 -30.3125 L 21.234375 -25 C 20.066406 -25.4375 18.898438 -25.800781 17.734375 -26.09375 C 16.578125 -26.394531 15.453125 -26.5 14.359375 -26.40625 Z M 14.359375 -26.40625 "/></g></g></g><g fill="#f7b11c" fill-opacity="1"><g transform="translate(178.508377, 110.717972)"><g><path d="M 22.125 -0.15625 L 19.90625 -7.28125 L 8.984375 -7.203125 L 6.84375 -0.046875 L 0 0 L 10.359375 -30.1875 L 18.140625 -30.234375 L 28.984375 -0.203125 Z M 18.34375 -12.59375 L 16.125 -19.546875 C 15.988281 -20.015625 15.800781 -20.613281 15.5625 -21.34375 C 15.332031 -22.070312 15.101562 -22.816406 14.875 -23.578125 C 14.644531 -24.335938 14.457031 -25 14.3125 -25.5625 C 14.1875 -25 14.003906 -24.300781 13.765625 -23.46875 C 13.535156 -22.632812 13.3125 -21.847656 13.09375 -21.109375 C 12.882812 -20.367188 12.734375 -19.84375 12.640625 -19.53125 L 10.53125 -12.546875 Z M 18.34375 -12.59375 "/></g></g></g><g fill="#f7b11c" fill-opacity="1"><g transform="translate(206.239673, 110.425922)"><g><path d="M 29.71875 -13.09375 C 29.46875 -9.726562 28.613281 -6.960938 27.15625 -4.796875 C 25.695312 -2.628906 23.703125 -1.066406 21.171875 -0.109375 C 18.648438 0.835938 15.671875 1.179688 12.234375 0.921875 L 3.765625 0.28125 L 6.015625 -29.625 L 15.40625 -28.921875 C 18.539062 -28.679688 21.21875 -27.914062 23.4375 -26.625 C 25.65625 -25.34375 27.316406 -23.566406 28.421875 -21.296875 C 29.523438 -19.023438 29.957031 -16.289062 29.71875 -13.09375 Z M 23.109375 -13.40625 C 23.273438 -15.625 23.085938 -17.46875 22.546875 -18.9375 C 22.003906 -20.414062 21.128906 -21.546875 19.921875 -22.328125 C 18.710938 -23.109375 17.1875 -23.566406 15.34375 -23.703125 L 11.953125 -23.953125 L 10.484375 -4.46875 L 13.21875 -4.265625 C 16.3125 -4.035156 18.671875 -4.6875 20.296875 -6.21875 C 21.929688 -7.757812 22.867188 -10.15625 23.109375 -13.40625 Z M 23.109375 -13.40625 "/></g></g></g><g fill="#f7b11c" fill-opacity="1"><g transform="translate(236.094992, 112.768539)"><g><path d="M 20.8125 3.140625 L 3.734375 0.5625 L 8.203125 -29.09375 L 25.28125 -26.515625 L 24.5 -21.359375 L 13.703125 -22.984375 L 12.734375 -16.46875 L 22.765625 -14.953125 L 21.984375 -9.8125 L 11.953125 -11.328125 L 10.796875 -3.671875 L 21.59375 -2.046875 Z M 20.8125 3.140625 "/></g></g></g><g fill="#f7b11c" fill-opacity="1"><g transform="translate(258.137881, 115.684705)"><g><path d="M 16.015625 3.84375 L 14.5 -20.703125 L 14.3125 -20.734375 C 14.207031 -20.203125 14.054688 -19.378906 13.859375 -18.265625 C 13.660156 -17.148438 13.4375 -15.96875 13.1875 -14.71875 C 12.9375 -13.476562 12.691406 -12.359375 12.453125 -11.359375 L 9.1875 2.203125 L 3.671875 0.890625 L 10.6875 -28.265625 L 19.09375 -26.25 L 20.640625 -2.296875 L 20.75 -2.265625 L 33.4375 -22.796875 L 41.84375 -20.78125 L 34.828125 8.375 L 29.078125 6.984375 L 32.390625 -6.8125 C 32.617188 -7.726562 32.890625 -8.78125 33.203125 -9.96875 C 33.523438 -11.15625 33.84375 -12.285156 34.15625 -13.359375 C 34.46875 -14.429688 34.695312 -15.234375 34.84375 -15.765625 L 34.6875 -15.8125 L 21.671875 5.21875 Z M 16.015625 3.84375 "/></g></g></g><g fill="#f7b11c" fill-opacity="1"><g transform="translate(295.245569, 124.854366)"><g><path d="M 18.0625 -12.515625 L 27.9375 -22.203125 L 34.421875 -20.015625 L 19.140625 -5.859375 L 15.40625 5.203125 L 9.421875 3.1875 L 13.09375 -7.671875 L 9.59375 -28.40625 L 16.125 -26.203125 Z M 18.0625 -12.515625 "/></g></g></g></svg>